<?xml version="1.0" standalone="no"?>
<!DOCTYPE svg PUBLIC "-//W3C//DTD SVG 20010904//EN"
 "http://www.w3.org/TR/2001/REC-SVG-20010904/DTD/svg10.dtd">
<svg version="1.0" xmlns="http://www.w3.org/2000/svg"
 width="1280.000000pt" height="720.000000pt" viewBox="0 0 1280.000000 720.000000"
 preserveAspectRatio="xMidYMid meet">

<g transform="translate(0.000000,720.000000) scale(0.100000,-0.100000)"
fill="#000000" stroke="none">
<path d="M6250 6911 c-133 -25 -259 -108 -335 -220 -24 -36 -484 -815 -1023
-1731 -538 -916 -1278 -2173 -1644 -2795 -366 -621 -675 -1157 -688 -1190 -46
-122 -36 -285 25 -404 57 -114 174 -216 300 -263 l60 -23 3360 -3 c2416 -2
3378 0 3425 8 131 23 252 100 331 213 71 101 94 178 93 307 0 85 -5 117 -24
165 -13 33 -164 299 -335 590 -799 1358 -1012 1719 -1963 3335 -558 949 -1026
1743 -1040 1764 -63 101 -165 184 -275 224 -65 25 -197 36 -267 23z m377
-1331 c162 -272 391 -655 508 -850 116 -195 447 -749 735 -1230 288 -481 693
-1158 900 -1505 641 -1071 680 -1136 680 -1146 0 -5 -1169 -9 -3151 -9 l-3151
0 14 23 c15 23 152 252 1088 1817 321 536 719 1202 885 1480 166 278 490 820
720 1205 229 385 424 711 433 725 15 23 15 24 29 5 8 -11 148 -243 310 -515z"/>
<path d="M6137 4729 c-101 -29 -157 -60 -190 -109 -21 -30 -21 -83 -2 -335 8
-104 19 -255 24 -335 6 -80 24 -334 41 -565 17 -231 35 -483 40 -560 38 -530
37 -518 62 -550 39 -50 94 -70 193 -70 78 0 96 3 134 25 73 41 82 61 92 196 4
66 17 247 29 404 11 157 25 346 30 420 5 74 19 261 30 415 11 154 25 343 30
420 6 77 15 201 20 275 16 220 15 234 -22 275 -38 44 -84 68 -179 95 -97 26
-237 26 -332 -1z"/>
<path d="M6217 2000 c-99 -25 -196 -97 -240 -178 -120 -220 -42 -491 171 -590
50 -24 70 -27 157 -27 87 0 107 3 157 27 209 97 288 358 177 579 -36 72 -113
142 -187 169 -64 25 -178 34 -235 20z"/>
</g>
</svg>
