<?xml version="1.0" standalone="no"?>
<!DOCTYPE svg PUBLIC "-//W3C//DTD SVG 20010904//EN"
 "http://www.w3.org/TR/2001/REC-SVG-20010904/DTD/svg10.dtd">
<svg version="1.0" xmlns="http://www.w3.org/2000/svg"
 width="1280.000000pt" height="720.000000pt" viewBox="0 0 1280.000000 720.000000"
 preserveAspectRatio="xMidYMid meet">

<g transform="translate(0.000000,720.000000) scale(0.100000,-0.100000)"
fill="#000000" stroke="none">
<path d="M6030 7188 c-14 -7 -33 -29 -43 -48 -16 -32 -17 -76 -15 -593 l3
-559 33 -29 c59 -53 140 -29 162 49 13 49 14 1064 0 1113 -6 20 -19 44 -29 53
-25 23 -80 30 -111 14z"/>
<path d="M3591 6176 c-47 -26 -63 -84 -37 -134 8 -15 189 -201 403 -413 299
-298 395 -388 420 -393 66 -15 128 50 116 119 -4 23 -93 118 -377 404 -204
205 -389 386 -410 402 -42 31 -77 36 -115 15z"/>
<path d="M8455 6171 c-16 -10 -202 -191 -411 -402 -295 -297 -383 -391 -389
-416 -14 -70 60 -136 128 -114 22 7 159 138 418 398 213 214 392 398 398 410
20 39 13 73 -23 109 -39 39 -75 44 -121 15z"/>
<path d="M5920 5469 c-196 -17 -410 -79 -589 -169 -497 -249 -832 -720 -911
-1280 -18 -126 -8 -418 19 -543 50 -231 148 -452 282 -637 148 -206 191 -273
250 -395 126 -261 158 -409 169 -775 9 -301 15 -332 82 -401 22 -22 65 -53 96
-67 l57 -27 705 3 c803 4 757 -1 844 92 66 71 76 114 76 344 0 281 20 427 87
625 60 182 151 346 297 539 134 178 202 304 270 500 64 183 81 298 81 532 0
174 -4 222 -23 315 -93 448 -340 818 -712 1070 -312 210 -701 309 -1080 274z
m408 -219 c392 -71 737 -298 964 -634 108 -162 181 -333 219 -521 27 -132 33
-401 11 -525 -46 -257 -135 -452 -311 -688 -117 -156 -160 -225 -230 -373 -67
-141 -121 -303 -152 -458 -17 -85 -23 -158 -28 -369 -6 -262 -6 -264 -30 -283
-22 -18 -49 -19 -696 -19 -665 0 -673 0 -699 21 l-26 20 0 162 c0 559 -113
892 -464 1370 -117 159 -204 355 -247 555 -32 153 -37 385 -10 541 37 217 128
441 248 609 70 98 219 248 324 327 199 148 409 233 689 278 14 2 93 5 176 6
112 1 179 -4 262 -19z"/>
<path d="M2567 3730 c-55 -43 -42 -130 23 -162 32 -16 81 -18 573 -18 577 0
585 1 621 51 26 37 21 86 -13 120 l-29 29 -575 0 c-563 0 -575 0 -600 -20z"/>
<path d="M8379 3721 c-34 -34 -39 -83 -13 -120 36 -50 45 -51 606 -51 288 0
541 5 562 10 57 13 81 41 81 96 0 38 -5 50 -28 70 l-28 24 -575 0 -576 0 -29
-29z"/>
<path d="M4355 2066 c-45 -21 -802 -785 -810 -818 -19 -76 47 -142 123 -123
18 4 160 139 423 403 305 306 398 404 402 427 8 46 -17 93 -57 110 -42 18 -43
18 -81 1z"/>
<path d="M7712 2065 c-39 -17 -66 -71 -56 -113 9 -38 788 -818 827 -827 76
-19 141 46 122 123 -8 33 -764 794 -811 817 -38 18 -40 18 -82 0z"/>
<path d="M5333 1103 c-12 -2 -33 -15 -47 -28 -54 -50 -24 -143 52 -165 25 -8
266 -10 765 -8 l729 3 29 33 c32 36 39 93 15 124 -36 48 -38 48 -803 47 -395
-1 -728 -4 -740 -6z"/>
<path d="M5308 814 c-34 -18 -48 -43 -48 -84 0 -42 15 -67 50 -85 25 -13 129
-15 775 -15 l747 0 29 29 c48 49 38 125 -21 156 -43 22 -1491 22 -1532 -1z"/>
<path d="M5305 538 c-33 -19 -44 -41 -45 -85 0 -34 5 -46 30 -67 17 -14 45
-28 63 -31 18 -3 357 -5 755 -3 l724 3 29 33 c41 46 41 100 -2 136 l-31 26
-751 0 c-547 -1 -757 -4 -772 -12z"/>
<path d="M5458 264 c-5 -4 51 -182 77 -247 7 -16 42 -17 540 -17 l533 0 16 42
c41 111 74 214 70 220 -6 9 -1228 11 -1236 2z"/>
</g>
</svg>
